<?xml version="1.0" encoding="UTF-8" standalone="no"?>
<!DOCTYPE svg PUBLIC "-//W3C//DTD SVG 1.1//EN" "http://www.w3.org/Graphics/SVG/1.1/DTD/svg11.dtd">
<svg width="100%" height="100%" viewBox="0 0 4267 4267" version="1.1" xmlns="http://www.w3.org/2000/svg" xmlns:xlink="http://www.w3.org/1999/xlink" xml:space="preserve" xmlns:serif="http://www.serif.com/" style="fill-rule:evenodd;clip-rule:evenodd;stroke-miterlimit:10;">
    <g transform="matrix(1.09411,0,0,1.09411,-296.504,-139.864)">
        <g id="Layer-3" serif:id="Layer 3">
            <g>
                <g transform="matrix(0,-1894.67,-1894.67,0,3243.07,3649.52)">
                    <path d="M0.961,0.218L0.91,0.293L0.006,0.49L0.006,0.157L0.392,0.16C0.392,0.16 0.411,0.073 0.328,0.019C0.328,0.019 0.327,0.019 0.327,0.019C0.259,-0.024 0.077,-0.119 0.006,-0.156L0.006,-0.49C0.084,-0.451 0.292,-0.346 0.345,-0.305C0.41,-0.255 0.421,-0.188 0.421,-0.188C0.421,-0.188 0.444,-0.261 0.496,-0.322C0.513,-0.341 0.532,-0.359 0.554,-0.373C0.565,-0.38 0.577,-0.386 0.59,-0.391C0.652,-0.415 0.72,-0.416 0.78,-0.398C0.817,-0.387 0.85,-0.369 0.877,-0.345C0.891,-0.332 0.903,-0.318 0.913,-0.302C0.926,-0.281 0.936,-0.258 0.944,-0.233C0.951,-0.211 0.956,-0.189 0.96,-0.168C0.96,-0.165 0.961,-0.163 0.961,-0.16L0.961,0.218ZM0.767,0.158L0.767,-0.035C0.767,-0.035 0.751,-0.118 0.675,-0.116C0.598,-0.115 0.573,-0.035 0.573,-0.035L0.573,0.158L0.767,0.158Z" style="fill:url(#_Linear1);fill-rule:nonzero;"/>
                </g>
                <g transform="matrix(21.5315,0,0,21.5315,3633.38,2206.42)">
                    <path d="M0,0.095L-0.158,0.053L-0.095,0L0,0.095Z" style="fill:none;fill-rule:nonzero;stroke:black;stroke-width:0.01px;"/>
                </g>
                <g transform="matrix(0,-1898.08,-1898.08,0,1542.47,3675)">
                    <path d="M0.973,-0.384L0.438,-0.288L0.973,-0.131L0.973,0.14L0.444,0.283L0.973,0.394L0.973,0.67L0.019,0.459L0.019,0.176L0.619,0.009L0.019,-0.163L0.019,-0.462L0.973,-0.67L0.973,-0.384Z" style="fill:url(#_Linear2);fill-rule:nonzero;"/>
                </g>
                <g transform="matrix(21.5315,0,0,21.5315,3178.18,1107.05)">
                    <path d="M0,39.032L-0.458,40.063L-1.334,42.032L-2.216,42.704L-1.587,43.886L-3.074,42.681L-4.651,42.966L-8.269,39.874L-54.311,9.014L-65.63,4.92L-68.748,2.836L-68.855,2.068L-69.302,-1.142L-69.303,-1.143C-69.346,-1.178 -70.4,-2.076 -69.109,-3.685C-68.592,-4.33 -68.06,-4.669 -67.515,-4.789C-67.233,-4.851 -66.949,-4.854 -66.66,-4.813C-66.641,-4.809 -66.623,-4.806 -66.604,-4.803C-66.58,-4.8 -66.556,-4.796 -66.533,-4.791C-66.529,-4.791 -66.526,-4.79 -66.523,-4.79C-66.424,-4.77 -66.325,-4.746 -66.225,-4.716C-66.223,-4.715 -66.222,-4.715 -66.222,-4.715C-65.485,-4.5 -64.732,-4.031 -63.964,-3.509C-63.493,-3.189 -62.992,-2.861 -62.506,-2.552C-61.852,-2.133 -61.229,-1.748 -60.755,-1.459C-60.229,-1.137 -59.884,-0.934 -59.884,-0.934L-58.393,2.074L-56.971,3.714L-54.311,4.178C-54.311,4.178 -53.09,4.999 -51.036,6.379C-40.404,13.529 -7.435,35.682 -5.88,36.588C-4.025,37.671 0,39.032 0,39.032" style="fill:rgb(79,46,32);fill-rule:nonzero;"/>
                </g>
                <g transform="matrix(21.5315,0,0,21.5315,1875.93,1072.85)">
                    <path d="M0,2.083C0,2.083 -0.789,5.349 -6.448,4.189C-7.16,4.043 -7.8,3.862 -8.374,3.657L-8.821,0.446L-8.822,0.445C-8.865,0.41 -9.919,-0.487 -8.628,-2.097C-8.111,-2.742 -7.579,-3.08 -7.035,-3.2C-6.752,-3.262 -6.468,-3.266 -6.179,-3.224C-6.161,-3.22 -6.142,-3.217 -6.123,-3.215C-6.099,-3.211 -6.075,-3.207 -6.052,-3.203C-6.048,-3.203 -6.045,-3.202 -6.042,-3.201C-5.943,-3.181 -5.844,-3.157 -5.744,-3.128C-5.742,-3.127 -5.741,-3.127 -5.741,-3.127C-5.005,-2.911 -4.251,-2.443 -3.483,-1.92C-3.012,-1.6 -2.511,-1.272 -2.025,-0.963C-0.726,0.509 0,2.083 0,2.083" style="fill:rgb(98,62,44);fill-rule:nonzero;"/>
                </g>
                <g transform="matrix(21.5315,0,0,21.5315,1871.84,1002.53)">
                    <path d="M0,4.434L-3.171,3.995L-7.124,1.455C-7.124,1.455 -7.025,0.747 -6.844,0.066C-6.562,0.004 -6.277,0 -5.989,0.042C-5.97,0.046 -5.952,0.048 -5.933,0.051C-5.909,0.055 -5.885,0.059 -5.862,0.063C-5.858,0.063 -5.855,0.064 -5.852,0.065C-5.753,0.085 -5.654,0.109 -5.554,0.138C-5.552,0.139 -5.551,0.139 -5.551,0.139C-4.814,0.354 -4.061,0.823 -3.293,1.345C-2.185,2.099 -0.909,2.892 -0.083,3.396L0,4.434Z" style="fill:rgb(40,19,9);fill-rule:nonzero;"/>
                </g>
                <g transform="matrix(21.5315,0,0,21.5315,3178.18,1266.6)">
                    <path d="M0,31.622L-0.458,32.653L-4.976,31.815L-50.919,0.832L-51.036,-1.031C-40.404,6.119 -7.435,28.272 -5.88,29.178C-4.025,30.261 0,31.622 0,31.622" style="fill:rgb(40,19,9);fill-rule:nonzero;"/>
                </g>
                <g transform="matrix(21.5315,0,0,21.5315,3835.63,2103.45)">
                    <path d="M0,9.619C-1.032,9.493 -4.13,8.964 -4.13,8.964L-4.004,10.249L-5.112,8.964C-7.101,8.637 -8.78,7.839 -8.78,7.839L-8.575,8.964C-8.575,8.964 -9.494,7.982 -10.35,7.121C-11.206,6.26 -15.059,2.266 -15.059,2.266L-14.631,1.208L-11.483,1.586L-11.232,1.248L-9.594,-0.957L-7.806,-0.378C-7.806,-0.378 -7.697,-0.118 -7.507,0.265C-7.114,1.058 -6.38,2.381 -5.565,3.034C-4.357,4.003 -1.309,4.633 -1.309,4.633L-0.327,5.665C0.201,8.284 1.486,10.576 1.486,10.576L0,9.619Z" style="fill:rgb(192,89,9);fill-rule:nonzero;"/>
                </g>
                <g transform="matrix(21.5315,0,0,21.5315,3618.68,2129.47)">
                    <path d="M0,2.543C0,2.543 -3.12,1.737 -4.983,1.057L-4.555,0L-1.407,0.377L-1.156,0.04L0,2.543Z" style="fill:rgb(255,240,112);fill-rule:nonzero;"/>
                </g>
                <g transform="matrix(21.5315,0,0,21.5315,3828.58,2118.92)">
                    <path d="M0,4.947C-4.281,5.4 -7.832,3.058 -7.832,3.058C-7.832,3.058 -8.713,3.209 -8.814,3.008C-8.914,2.807 -9.695,1.22 -9.745,1.019C-9.796,0.817 -9.166,-0.165 -9.166,-0.165L-7.18,-0.453C-6.787,0.34 -6.053,1.662 -5.238,2.316C-4.029,3.285 -0.982,3.915 -0.982,3.915L0,4.947Z" style="fill:rgb(111,41,4);fill-rule:nonzero;"/>
                </g>
                <g transform="matrix(21.5315,0,0,21.5315,3715.8,742.34)">
                    <path d="M0,66.249C-0.604,65.858 -0.789,65.506 -1.478,64.649C-2.017,63.979 -3.091,64.328 -3.157,65.116C-3.175,65.333 -3.116,65.585 -2.946,65.858C-1.977,67.42 -1.032,69.938 -1.889,70.29C-2.745,70.643 -3.727,68.83 -3.727,68.83L-37.471,12.925L-42.947,4.459L-47.519,-2.612L-47.132,-2.668L-45.63,-2.889C-45.63,-2.889 -45.323,-3.422 -44.399,-3.867C-44.127,-3.999 -43.802,-4.123 -43.414,-4.224C-42.759,-4.394 -42.234,-4.306 -41.833,-4.128C-41.141,-3.822 -40.816,-3.243 -40.816,-3.243L-39.468,-0.494L-38.701,2.178L-37.773,5.404L-33.829,9.803L0,66.249Z" style="fill:rgb(79,46,32);fill-rule:nonzero;"/>
                </g>
                <g transform="matrix(21.5315,0,0,21.5315,2882.51,700.543)">
                    <path d="M0,4.119C-0.068,4.462 -0.181,4.762 -0.349,4.995C-1.474,6.572 -3.59,6.473 -4.246,6.4L-8.818,-0.671L-8.431,-0.727L-6.929,-0.948C-6.929,-0.948 -6.413,-1.842 -4.713,-2.282C-4.058,-2.453 -3.534,-2.365 -3.133,-2.187C-2.441,-1.88 -2.115,-1.302 -2.115,-1.302L-0.768,1.448L0,4.119Z" style="fill:rgb(98,62,44);fill-rule:nonzero;"/>
                </g>
                <g transform="matrix(21.5315,0,0,21.5315,3715.8,647.731)">
                    <path d="M0,70.643C-0.604,70.252 -0.789,69.9 -1.478,69.043C-2.017,68.373 -3.091,68.722 -3.157,69.51L-44.399,0.527C-44.127,0.395 -43.802,0.271 -43.414,0.17C-42.759,0 -42.234,0.088 -41.833,0.266C-41.141,0.572 -40.816,1.151 -40.816,1.151L-39.468,3.9L-38.701,6.572L-37.773,9.798L-33.829,14.197L0,70.643Z" style="fill:rgb(40,19,9);fill-rule:nonzero;"/>
                </g>
                <g transform="matrix(21.5315,0,0,21.5315,2796.93,673.037)">
                    <path d="M0,1.874C-1.763,3.049 -2.959,2.437 -2.959,2.437L-4.44,0.682L-4.456,0.55L-2.954,0.33C-2.954,0.33 -2.439,-0.565 -0.738,-1.005C-0.084,-1.175 0.441,-1.087 0.842,-0.909C0.843,-0.908 0.844,-0.908 0.845,-0.907C1.505,-0.516 1.763,0.7 0,1.874" style="fill:rgb(124,85,69);fill-rule:nonzero;"/>
                </g>
                <g transform="matrix(422.922,0,0,-422.922,2818.44,824.755)">
                    <path d="M0.447,0.443C0.288,0.345 0.076,0.282 0.076,0.282L0,0.188L0.425,-0.512C0.689,-0.456 0.932,-0.304 0.932,-0.304L1,-0.204L0.783,0.007L0.744,-0.004L0.272,-0.139L0.681,0.039L0.768,0.127L0.541,0.512C0.514,0.488 0.482,0.464 0.447,0.443Z" style="fill:url(#_Linear3);fill-rule:nonzero;"/>
                </g>
                <g transform="matrix(21.5315,0,0,21.5315,3241.36,863.944)">
                    <path d="M0,2.191L-1.335,4.155L-5.246,-0.159L-5.036,-1.741L-4.256,-1.964L0,2.191Z" style="fill:rgb(93,0,4);fill-rule:nonzero;"/>
                </g>
                <g transform="matrix(21.5315,0,0,21.5315,3143.23,644.882)">
                    <path d="M0,5.868L-1.712,7.58L-5.708,0.698L-6.303,-0.344C-5.618,-0.769 -4.984,-1.226 -4.457,-1.712L0,5.868Z" style="fill:rgb(93,0,4);fill-rule:nonzero;"/>
                </g>
                <g transform="matrix(509.676,0,0,-509.676,2399.32,768.705)">
                    <path d="M-0,0.448C-0,0.448 0.272,0.018 0.366,-0.165L1,-0.494L0.655,0.084C0.655,0.084 0.655,0.085 0.655,0.085C0.653,0.089 0.626,0.135 0.655,0.174L0.04,0.494L-0,0.448Z" style="fill:url(#_Linear4);fill-rule:nonzero;"/>
                </g>
                <g transform="matrix(-18.8363,-10.4306,-10.4306,18.8363,2470.88,448.978)">
                    <path d="M-16.88,5.333L0.846,5.333L0.56,3.909L-15.864,3.488C-15.711,4.632 -16.779,5.274 -16.88,5.333" style="fill:rgb(255,67,59);fill-rule:nonzero;"/>
                </g>
                <g transform="matrix(-10.3543,18.8784,18.8784,10.3543,3016.64,962.271)">
                    <path d="M-8.699,2.279L-6.64,2.279C-5.22,0.703 -1.349,-5.15 -1.349,-5.15L-8.128,1.702L-8.699,2.279Z" style="fill:rgb(255,67,59);fill-rule:nonzero;"/>
                </g>
                <g transform="matrix(21.5315,0,0,21.5315,3047.25,745.202)">
                    <path d="M0,-6.371L-1.251,-3.962C-4.575,-1.443 -10.627,0 -10.627,0L-9.061,-1.937C-9.061,-1.937 -4.961,-3.073 -1.845,-5.003C-1.16,-5.428 -0.527,-5.885 0,-6.371" style="fill:rgb(255,67,59);fill-rule:nonzero;"/>
                </g>
                <g transform="matrix(398.328,0,0,-398.328,1803.49,1104.34)">
                    <path d="M0.244,0.319C0.19,0.238 0.108,0.133 0,0.04C0,0.04 0,0.04 0,0.04L0.699,-0.452C0.699,-0.452 0.935,-0.269 1,-0.091L1,0L0.769,0.123L0.717,0.082L0.507,-0.08L0.65,0.12L0.655,0.21L0.323,0.452C0.323,0.452 0.296,0.397 0.244,0.319Z" style="fill:url(#_Linear5);fill-rule:nonzero;"/>
                </g>
                <g transform="matrix(21.5315,0,0,21.5315,2064.46,959.925)">
                    <path d="M0,2.82L-0.101,4.482L-5.775,0.436L-7.603,0.801C-6.637,-0.64 -6.144,-1.662 -6.144,-1.662L0,2.82Z" style="fill:rgb(93,0,4);fill-rule:nonzero;"/>
                </g>
                <g transform="matrix(21.5315,0,0,21.5315,2201.81,1091.68)">
                    <path d="M0,0.587L0,2.274L-4.365,0.201L-5.237,-0.936L-4.264,-1.687L0,0.587Z" style="fill:rgb(93,0,4);fill-rule:nonzero;"/>
                </g>
                <g transform="matrix(21.5315,0,0,21.5315,1940.12,1043.38)">
                    <path d="M0,-3.44C-1.488,-1.324 -6.196,1.994 -6.343,2.098C-2.416,-1.292 -0.37,-5.538 -0.37,-5.538L0,-3.44Z" style="fill:rgb(255,67,59);fill-rule:nonzero;"/>
                </g>
                <g transform="matrix(-1.14959,21.5008,21.5008,1.14959,2094.59,1194.67)">
                    <path d="M-6.5,0.369L-4.608,0.369L-0.35,-6.161L-2.494,-4.283L-6.5,0.369Z" style="fill:rgb(255,67,59);fill-rule:nonzero;"/>
                </g>
                <g transform="matrix(637.268,0,0,-637.268,1371.52,1178.22)">
                    <path d="M-0,0.126C-0,0.126 0.3,-0.023 0.417,-0.155L1,-0.193L0.593,0.083L0.493,0.15L-0,0.193L-0,0.126Z" style="fill:url(#_Linear6);fill-rule:nonzero;"/>
                </g>
                <g transform="matrix(-21.4753,-1.5545,-1.5545,21.4753,1374.54,1041.81)">
                    <path d="M-17.639,2.612L-0.049,2.612L0.094,0.638L-14.564,0.839L-17.639,2.612Z" style="fill:rgb(255,67,59);fill-rule:nonzero;"/>
                </g>
                <g transform="matrix(21.5315,0,0,21.5315,3253.83,1975.02)">
                    <path d="M0,0.487L-4.539,2.061C-5.868,1.72 -7.028,1.349 -7.028,1.349C-7.654,0.607 -8.489,-1.087 -8.489,-1.087L-2.018,-1.574L-1.351,-0.58L-0.928,0.05L0,0.487Z" style="fill:rgb(255,240,112);fill-rule:nonzero;"/>
                </g>
                <g transform="matrix(21.5315,0,0,21.5315,3253.83,1996.42)">
                    <path d="M0,-0.507L-4.539,1.067C-5.868,0.726 -7.028,0.355 -7.028,0.355C-7.028,0.355 -3.924,-0.966 -1.351,-1.574L-0.928,-0.944L0,-0.507Z" style="fill:rgb(192,89,9);fill-rule:nonzero;"/>
                </g>
                <g transform="matrix(21.5315,0,0,21.5315,3078.03,1965.62)">
                    <path d="M0,3.091L-4.013,2.087L-4.964,1.368L-5.08,0.533L-3.618,0L-1.953,1.336L0,3.091Z" style="fill:rgb(192,89,9);fill-rule:nonzero;"/>
                </g>
                <g transform="matrix(5.35544,-20.8549,-20.8549,-5.35544,3024.29,1951.22)">
                    <path d="M-1.806,-1.025C-2.149,1.109 -2.586,1.884 -2.586,1.884L-1.806,2.204L-0.926,0.92L-1.806,-1.025Z" style="fill:rgb(111,41,4);fill-rule:nonzero;"/>
                </g>
                <g transform="matrix(21.5315,0,0,21.5315,1744.09,1029.25)">
                    <path d="M0,2.155C-1.647,3.477 -2.698,2.471 -2.698,2.471L-2.699,2.47C-2.742,2.435 -3.796,1.538 -2.505,-0.072C-1.72,-1.051 -0.902,-1.322 -0.056,-1.199C-0.037,-1.195 -0.019,-1.192 0,-1.19C0.024,-1.186 0.048,-1.182 0.071,-1.178C0.075,-1.178 0.078,-1.177 0.082,-1.176C0.188,-1.156 0.288,-1.132 0.379,-1.103C0.381,-1.102 0.382,-1.102 0.382,-1.102C1.775,-0.65 1.52,0.935 0,2.155" style="fill:rgb(124,85,69);fill-rule:nonzero;"/>
                </g>
            </g>
        </g>
    </g>
    <defs>
        <linearGradient id="_Linear1" x1="0" y1="0" x2="1" y2="0" gradientUnits="userSpaceOnUse" gradientTransform="matrix(1,0,0,-1,0,3.22973e-06)"><stop offset="0" style="stop-color:rgb(255,213,79);stop-opacity:1"/><stop offset="0.43" style="stop-color:rgb(255,197,55);stop-opacity:1"/><stop offset="1" style="stop-color:rgb(255,160,0);stop-opacity:1"/></linearGradient>
        <linearGradient id="_Linear2" x1="0" y1="0" x2="1" y2="0" gradientUnits="userSpaceOnUse" gradientTransform="matrix(1,0,0,-1,0,2.06685e-06)"><stop offset="0" style="stop-color:rgb(253,36,17);stop-opacity:1"/><stop offset="1" style="stop-color:rgb(168,0,4);stop-opacity:1"/></linearGradient>
        <linearGradient id="_Linear3" x1="0" y1="0" x2="1" y2="0" gradientUnits="userSpaceOnUse" gradientTransform="matrix(1,0,0,-1,0,2.29712e-05)"><stop offset="0" style="stop-color:rgb(253,36,17);stop-opacity:1"/><stop offset="1" style="stop-color:rgb(168,0,4);stop-opacity:1"/></linearGradient>
        <linearGradient id="_Linear4" x1="0" y1="0" x2="1" y2="0" gradientUnits="userSpaceOnUse" gradientTransform="matrix(1,0,0,-1,0,5.89747e-06)"><stop offset="0" style="stop-color:rgb(253,36,17);stop-opacity:1"/><stop offset="1" style="stop-color:rgb(168,0,4);stop-opacity:1"/></linearGradient>
        <linearGradient id="_Linear5" x1="0" y1="0" x2="1" y2="0" gradientUnits="userSpaceOnUse" gradientTransform="matrix(1,0,0,-1,0,3.9168e-05)"><stop offset="0" style="stop-color:rgb(253,36,17);stop-opacity:1"/><stop offset="1" style="stop-color:rgb(168,0,4);stop-opacity:1"/></linearGradient>
        <linearGradient id="_Linear6" x1="0" y1="0" x2="1" y2="0" gradientUnits="userSpaceOnUse" gradientTransform="matrix(1,0,0,-1,0,-3.37196e-05)"><stop offset="0" style="stop-color:rgb(253,36,17);stop-opacity:1"/><stop offset="1" style="stop-color:rgb(168,0,4);stop-opacity:1"/></linearGradient>
    </defs>
</svg>
